<svg
  width="187"
  height="383"
  viewBox="0 0 187 383"
  fill="none"
  xmlns="http://www.w3.org/2000/svg"
>
<path
    opacity="0.2"
    d="M107.9 0.199219C106.67 26.8092 82.0803 45.7392 60.4103 58.8992C38.7403 72.0792 17.5003 87.0292 2.54031 107.509C1.70031 108.659 0.880313 109.819 0.0703125 110.999V25.8392C0.0703125 23.2292 0.500313 20.6892 1.28031 18.2992C4.68031 7.81922 15.0003 0.199219 27.2103 0.199219H107.9Z"
    fill="#FF8C00"
  />
<path
    opacity="0.13"
    d="M186.421 300.33V357.32C186.421 367.59 180.041 376.45 170.831 380.55C167.321 382.1 163.411 382.98 159.281 382.98H27.2106C21.0906 382.98 15.4406 381.06 10.8906 377.82C44.0106 374.4 75.8906 359.21 99.1106 335.31C104.711 329.56 109.851 323.3 116.121 318.29C132.341 305.36 154.131 302.21 174.831 300.91C178.691 300.67 182.561 300.47 186.421 300.33Z"
    fill="#FF8C00"
  />
<path
    opacity="0.13"
    d="M186.42 339.839V357.319C186.42 367.589 180.04 376.449 170.83 380.549C167.32 382.099 163.41 382.979 159.28 382.979H27.2103C21.0903 382.979 15.4403 381.059 10.8903 377.819C4.32031 373.139 0.0703125 365.699 0.0703125 357.319V344.809C2.99031 343.229 6.10031 341.989 9.28031 341.119C20.0903 338.129 31.6003 338.829 42.6603 340.669C56.9603 343.039 70.9503 347.269 84.1703 353.219C96.7903 358.889 109.46 366.299 123.29 365.809C133.13 365.459 142.32 361.099 151.19 356.819C162.93 351.159 174.67 345.499 186.42 339.839Z"
    fill="#FF8C00"
  />
</svg>
