<svg
  width="161"
  height="247"
  viewBox="0 0 161 247"
  fill="none"
  xmlns="http://www.w3.org/2000/svg"
>
<g clip-path="url(#clip0_13731_82401)">
<path
      d="M96.2911 0H64.3311C56.207 0 49.6211 6.58589 49.6211 14.71V46.67C49.6211 54.7941 56.207 61.38 64.3311 61.38H96.2911C104.415 61.38 111.001 54.7941 111.001 46.67V14.71C111.001 6.58589 104.415 0 96.2911 0Z"
      fill="url(#paint0_linear_13731_82401)"
    />
<path
      opacity="0.2"
      d="M94.0706 4.26953H66.5606C59.5632 4.26953 53.8906 9.94208 53.8906 16.9395V44.4495C53.8906 51.447 59.5632 57.1195 66.5606 57.1195H94.0706C101.068 57.1195 106.741 51.447 106.741 44.4495V16.9395C106.741 9.94208 101.068 4.26953 94.0706 4.26953Z"
      fill="white"
    />
<path
      d="M159.848 119.895C163.962 100.302 151.415 81.0831 131.822 76.9685C112.229 72.8539 93.01 85.4016 88.8954 104.995C84.7809 124.587 97.3285 143.806 116.921 147.921C136.514 152.035 155.733 139.488 159.848 119.895Z"
      fill="#FF8C00"
    />
<path
      d="M141.532 138.615C155.987 129.134 160.02 109.731 150.539 95.276C141.058 80.8212 121.655 76.7888 107.2 86.2694C92.7453 95.75 88.7129 115.153 98.1935 129.608C107.674 144.063 127.078 148.096 141.532 138.615Z"
      fill="white"
    />
<path
      opacity="0.5"
      d="M130.072 84.0398C146.642 87.3598 157.502 103.2 154.812 119.74C154.902 119.36 154.992 118.99 155.072 118.6C158.472 101.65 147.482 85.1498 130.532 81.7598C113.582 78.3598 97.0822 89.3498 93.6922 106.3C93.6122 106.68 93.5522 107.06 93.4922 107.45C97.3822 91.1497 113.512 80.7298 130.082 84.0498L130.072 84.0398Z"
      fill="#D8D8D8"
    />
<path
      d="M129.253 88.1407C128.833 88.0607 128.563 87.6507 128.643 87.2307L129.403 83.4307C129.483 83.0107 129.893 82.7407 130.313 82.8207C130.733 82.9007 131.003 83.3107 130.923 83.7307L130.163 87.5307C130.083 87.9507 129.673 88.2207 129.253 88.1407Z"
      fill="#FF8C00"
    />
<path
      d="M116.442 88.9598C116.042 89.0998 115.592 88.8798 115.462 88.4698L114.222 84.7898C114.082 84.3898 114.302 83.9398 114.712 83.8098C115.112 83.6698 115.562 83.8898 115.692 84.2998L116.932 87.9798C117.072 88.3798 116.852 88.8298 116.442 88.9598Z"
      fill="#FF8C00"
    />
<path
      d="M105.764 96.0798C105.484 96.3998 104.994 96.4298 104.664 96.1498L101.754 93.5898C101.434 93.3098 101.404 92.8198 101.684 92.4998C101.964 92.1798 102.454 92.1498 102.784 92.4298L105.694 94.9898C106.014 95.2698 106.044 95.7598 105.764 96.0898V96.0798Z"
      fill="#FF8C00"
    />
<path
      d="M100.072 107.571C99.9923 107.991 99.5823 108.261 99.1623 108.181L95.3623 107.421C94.9423 107.341 94.6723 106.931 94.7523 106.511C94.8323 106.091 95.2423 105.821 95.6623 105.901L99.4623 106.661C99.8823 106.741 100.152 107.151 100.072 107.571Z"
      fill="#FF8C00"
    />
<path
      d="M100.891 120.38C101.031 120.78 100.811 121.23 100.401 121.36L96.7214 122.6C96.3214 122.74 95.8714 122.52 95.7414 122.11C95.6014 121.71 95.8214 121.26 96.2314 121.13L99.9114 119.89C100.311 119.75 100.761 119.97 100.891 120.38Z"
      fill="#FF8C00"
    />
<path
      d="M108.004 131.051C108.324 131.331 108.354 131.821 108.074 132.151L105.514 135.061C105.234 135.381 104.744 135.411 104.414 135.131C104.094 134.851 104.064 134.361 104.344 134.031L106.904 131.121C107.184 130.801 107.674 130.771 108.004 131.051Z"
      fill="#FF8C00"
    />
<path
      d="M119.5 136.75C119.92 136.83 120.19 137.24 120.11 137.66L119.35 141.46C119.27 141.88 118.86 142.15 118.44 142.07C118.02 141.99 117.75 141.58 117.83 141.16L118.59 137.36C118.67 136.94 119.08 136.67 119.5 136.75Z"
      fill="#FF8C00"
    />
<path
      d="M132.302 135.931C132.702 135.791 133.152 136.011 133.282 136.421L134.522 140.101C134.662 140.501 134.442 140.951 134.032 141.081C133.632 141.221 133.182 141.001 133.052 140.591L131.812 136.911C131.672 136.511 131.892 136.061 132.302 135.931Z"
      fill="#FF8C00"
    />
<path
      d="M142.981 128.81C143.261 128.49 143.751 128.46 144.081 128.74L146.991 131.3C147.311 131.58 147.341 132.07 147.061 132.4C146.781 132.72 146.291 132.75 145.961 132.47L143.051 129.91C142.731 129.63 142.701 129.14 142.981 128.81Z"
      fill="#FF8C00"
    />
<path
      d="M148.674 117.321C148.754 116.901 149.164 116.631 149.584 116.711L153.384 117.471C153.804 117.551 154.074 117.961 153.994 118.381C153.914 118.801 153.504 119.071 153.084 118.991L149.284 118.231C148.864 118.151 148.594 117.741 148.674 117.321Z"
      fill="#FF8C00"
    />
<path
      d="M147.851 104.51C147.711 104.11 147.931 103.66 148.341 103.53L152.021 102.29C152.421 102.15 152.871 102.37 153.001 102.78C153.141 103.18 152.921 103.63 152.511 103.76L148.831 105C148.431 105.14 147.981 104.92 147.851 104.51Z"
      fill="#FF8C00"
    />
<path
      d="M140.742 93.8399C140.422 93.5599 140.392 93.0699 140.672 92.7399L143.232 89.8299C143.512 89.5099 144.002 89.4799 144.332 89.7599C144.652 90.0399 144.682 90.5299 144.402 90.8599L141.842 93.7699C141.562 94.0899 141.072 94.1199 140.742 93.8399Z"
      fill="#FF8C00"
    />
<path
      d="M123.574 113.041C123.034 112.611 122.954 111.811 123.414 111.291L137.194 95.4609L137.624 95.8009L125.324 112.801C124.914 113.361 124.124 113.471 123.574 113.041Z"
      fill="#FF8C00"
    />
<path
      d="M125.654 112.21C125.474 113.09 124.324 113.57 123.214 113.22L110.914 109.37L110.954 109.16L123.784 110.34C124.944 110.45 125.824 111.33 125.644 112.21H125.654Z"
      fill="#FF8C00"
    />
<path
      d="M21.1503 195.09C9.19033 200.89 4.20033 215.28 10.0003 227.24C15.8003 239.2 30.1903 244.19 42.1503 238.39C54.1103 232.59 59.1003 218.2 53.3003 206.24C47.5003 194.28 33.1103 189.29 21.1503 195.09ZM36.9703 227.71C30.9103 230.65 23.6203 228.12 20.6903 222.06C17.7503 216 20.2803 208.71 26.3403 205.78C32.4003 202.85 39.6903 205.37 42.6203 211.43C45.5603 217.49 43.0303 224.78 36.9703 227.71Z"
      fill="#FF8C00"
    />
<path
      d="M20.9227 186.532L15.8573 188.99C14.8337 189.486 14.4065 190.718 14.9031 191.742L18.635 199.435C19.1316 200.458 20.364 200.885 21.3876 200.389L26.453 197.931C27.4766 197.435 27.9038 196.202 27.4072 195.179L23.6752 187.486C23.1786 186.463 21.9463 186.035 20.9227 186.532Z"
      fill="#FF8C00"
    />
<path
      d="M0.404055 210.562L-0.00043554 216.178C-0.0821748 217.313 0.77147 218.299 1.90624 218.38L10.4341 218.995C11.5689 219.076 12.5551 218.223 12.6368 217.088L13.0413 211.473C13.1231 210.338 12.2694 209.352 11.1346 209.27L2.60673 208.656C1.47196 208.574 0.485794 209.428 0.404055 210.562Z"
      fill="#FF8C00"
    />
<path
      d="M10.9658 240.339L15.6266 243.497C16.5685 244.135 17.8494 243.889 18.4875 242.947L23.2835 235.869C23.9216 234.927 23.6755 233.646 22.7336 233.008L18.0727 229.85C17.1308 229.212 15.85 229.458 15.2118 230.4L10.4159 237.478C9.77769 238.42 10.0239 239.701 10.9658 240.339Z"
      fill="#FF8C00"
    />
<path
      d="M42.0265 246.089L47.0919 243.632C48.1155 243.135 48.5427 241.903 48.0461 240.879L44.3142 233.186C43.8176 232.163 42.5852 231.736 41.5616 232.232L36.4962 234.69C35.4726 235.186 35.0454 236.419 35.542 237.442L39.274 245.135C39.7706 246.158 41.0029 246.586 42.0265 246.089Z"
      fill="#FF8C00"
    />
<path
      d="M62.5334 222.072L62.9379 216.457C63.0197 215.322 62.166 214.336 61.0313 214.254L52.5034 213.64C51.3686 213.558 50.3824 214.412 50.3007 215.547L49.8962 221.162C49.8144 222.297 50.6681 223.283 51.8029 223.365L60.3308 223.979C61.4655 224.061 62.4517 223.207 62.5334 222.072Z"
      fill="#FF8C00"
    />
<path
      d="M51.9835 192.292L47.3226 189.134C46.3807 188.496 45.0998 188.742 44.4617 189.684L39.6657 196.762C39.0276 197.704 39.2738 198.985 40.2156 199.623L44.8765 202.781C45.8184 203.419 47.0992 203.173 47.7374 202.231L52.5334 195.153C53.1715 194.211 52.9253 192.93 51.9835 192.292Z"
      fill="#FF8C00"
    />
<path
      d="M72.7462 84.9419L7.59909 117.679C2.4422 120.27 0.362456 126.552 2.95385 131.708L53.4267 232.15C56.0181 237.307 62.2993 239.387 67.4562 236.795L132.603 204.058C137.76 201.467 139.84 195.185 137.249 190.029L86.7757 89.5871C84.1843 84.4302 77.9031 82.3505 72.7462 84.9419Z"
      fill="#FF8C00"
    />
<g style="mix-blend-mode:soft-light" opacity="0.5">
<path
        d="M63.3004 91.3185L52.5404 96.7285C52.3004 96.2885 52.0504 95.8685 51.7704 95.4685L28.5503 107.138C28.7003 107.598 28.8904 108.048 29.1004 108.498L18.3404 113.908C15.1704 115.498 13.8904 119.358 15.4904 122.528L16.5804 124.698L73.0104 96.3385L71.9203 94.1685C70.3303 90.9985 66.4704 89.7185 63.3004 91.3185Z"
        fill="black"
      />
</g>
<g style="mix-blend-mode:soft-light" opacity="0.5">
<path
        d="M74.3025 93.2531L13.337 123.889C10.0702 125.531 8.75268 129.51 10.3943 132.776L58.0699 227.651C59.7115 230.918 63.6906 232.236 66.9575 230.594L127.923 199.958C131.19 198.317 132.507 194.338 130.866 191.071L83.19 96.1959C81.5484 92.929 77.5693 91.6115 74.3025 93.2531Z"
        fill="black"
      />
</g>
<path
      d="M73.7634 92.1985L12.798 122.834C9.53112 124.476 8.21361 128.455 9.85524 131.722L57.5308 226.597C59.1724 229.863 63.1516 231.181 66.4184 229.539L127.384 198.904C130.651 197.262 131.968 193.283 130.327 190.016L82.651 95.1412C81.0094 91.8743 77.0302 90.5568 73.7634 92.1985Z"
      fill="white"
    />
<path
      d="M18.5685 114.385L63.5308 91.7909C66.6939 90.2014 70.5604 91.4816 72.1499 94.6447L73.241 96.816L16.8057 125.175L15.7147 123.004C14.1252 119.841 15.4054 115.974 18.5685 114.385Z"
      fill="#FF8C00"
    />
<path
      d="M35.2982 91.6283C28.8282 94.8783 26.2182 102.768 29.4682 109.238L52.9182 97.4583C49.6682 90.9883 41.7782 88.3783 35.3082 91.6283H35.2982ZM39.6282 100.248C38.2582 100.938 36.5882 100.388 35.8982 99.0183C35.2082 97.6483 35.7582 95.9783 37.1282 95.2883C38.4982 94.5983 40.1682 95.1483 40.8582 96.5183C41.5482 97.8883 40.9982 99.5583 39.6282 100.248Z"
      fill="#FF8C00"
    />
<g opacity="0.7">
<path
        d="M38.0628 143.638L28.9028 148.238C27.9328 148.728 26.7428 148.338 26.2528 147.358L21.6528 138.198C21.1628 137.228 21.5528 136.038 22.5328 135.548L31.6928 130.948C32.6628 130.458 33.8528 130.848 34.3428 131.828L38.9428 140.988C39.4328 141.958 39.0428 143.148 38.0628 143.638ZM22.9428 136.378C22.4228 136.638 22.2228 137.268 22.4728 137.788L27.0728 146.948C27.3328 147.468 27.9628 147.668 28.4828 147.418L37.6428 142.818C38.1628 142.558 38.3628 141.928 38.1128 141.408L33.5128 132.248C33.2528 131.728 32.6228 131.528 32.1028 131.778L22.9428 136.378Z"
        fill="#FF8C00"
      />
</g>
<path
      d="M25.6445 142.677L32.1045 144.208L37.3145 130.018L34.1645 128.938L30.4645 140.837L26.5345 139.887L25.6445 142.677Z"
      fill="#FF8C00"
    />
<path
      opacity="0.5"
      d="M77.9755 109.396L39.3125 128.824L40.5158 131.219L79.1788 111.79L77.9755 109.396Z"
      fill="#FF8C00"
    />
<path
      opacity="0.5"
      d="M70.0042 118.461L41.3398 132.865L42.5432 135.26L71.2076 120.856L70.0042 118.461Z"
      fill="#FF8C00"
    />
<path
      opacity="0.5"
      d="M59.96 128.588L43.3672 136.926L44.5705 139.32L61.1633 130.982L59.96 128.588Z"
      fill="#FF8C00"
    />
<g opacity="0.7">
<path
        d="M49.0315 165.468L39.8715 170.068C38.9015 170.558 37.7115 170.168 37.2215 169.188L32.6215 160.028C32.1315 159.058 32.5215 157.868 33.5015 157.378L42.6615 152.778C43.6315 152.288 44.8215 152.678 45.3115 153.658L49.9115 162.818C50.4015 163.788 50.0115 164.978 49.0315 165.468ZM33.9215 158.218C33.4015 158.478 33.2015 159.108 33.4515 159.628L38.0515 168.788C38.3115 169.308 38.9415 169.508 39.4615 169.258L48.6215 164.658C49.1415 164.398 49.3415 163.768 49.0915 163.248L44.4915 154.088C44.2315 153.568 43.6015 153.368 43.0815 153.618L33.9215 158.218Z"
        fill="#FF8C00"
      />
</g>
<path
      d="M36.6133 164.508L43.0733 166.048L48.2933 151.858L45.1433 150.768L41.4333 162.668L37.5133 161.718L36.6133 164.508Z"
      fill="#FF8C00"
    />
<path
      opacity="0.5"
      d="M88.9364 131.226L50.2734 150.654L51.4768 153.049L90.1397 133.62L88.9364 131.226Z"
      fill="#FF8C00"
    />
<path
      opacity="0.5"
      d="M80.9769 140.311L52.3125 154.715L53.5158 157.109L82.1802 142.705L80.9769 140.311Z"
      fill="#FF8C00"
    />
<path
      opacity="0.5"
      d="M70.9405 150.424L54.3477 158.762L55.551 161.156L72.1438 152.818L70.9405 150.424Z"
      fill="#FF8C00"
    />
<g opacity="0.7">
<path
        d="M60.012 187.308L50.852 191.908C49.882 192.398 48.692 192.008 48.202 191.028L43.602 181.868C43.112 180.898 43.502 179.708 44.482 179.218L53.642 174.618C54.612 174.128 55.802 174.518 56.292 175.498L60.892 184.658C61.382 185.628 60.992 186.818 60.012 187.308ZM44.892 180.058C44.372 180.318 44.172 180.948 44.422 181.468L49.022 190.628C49.282 191.148 49.912 191.348 50.432 191.098L59.592 186.498C60.112 186.238 60.312 185.608 60.062 185.088L55.462 175.928C55.202 175.408 54.572 175.208 54.052 175.458L44.892 180.058Z"
        fill="#FF8C00"
      />
</g>
<path
      d="M47.5938 186.347L54.0537 187.887L59.2637 173.697L56.1138 172.607L52.4137 184.507L48.4837 183.557L47.5938 186.347Z"
      fill="#FF8C00"
    />
<path
      opacity="0.5"
      d="M99.9169 153.06L61.2539 172.488L62.4572 174.883L101.12 155.454L99.9169 153.06Z"
      fill="#FF8C00"
    />
<path
      opacity="0.5"
      d="M91.9534 162.135L63.2891 176.539L64.4924 178.934L93.1568 164.53L91.9534 162.135Z"
      fill="#FF8C00"
    />
<path
      opacity="0.5"
      d="M81.9131 172.262L65.3203 180.6L66.5237 182.994L83.1165 174.656L81.9131 172.262Z"
      fill="#FF8C00"
    />
<g opacity="0.7">
<path
        d="M70.9846 209.147L61.8246 213.747C60.8546 214.237 59.6646 213.847 59.1746 212.867L54.5746 203.707C54.0846 202.737 54.4746 201.547 55.4546 201.057L64.6146 196.457C65.5846 195.967 66.7746 196.357 67.2646 197.337L71.8646 206.497C72.3546 207.467 71.9646 208.657 70.9846 209.147ZM55.8746 201.887C55.3546 202.147 55.1546 202.777 55.4046 203.297L60.0046 212.457C60.2646 212.977 60.8946 213.177 61.4146 212.927L70.5746 208.327C71.0946 208.067 71.2946 207.437 71.0446 206.917L66.4446 197.757C66.1846 197.237 65.5546 197.037 65.0346 197.287L55.8746 201.887Z"
        fill="#FF8C00"
      />
</g>
<path
      d="M58.5664 208.187L65.0264 209.717L70.2464 195.527L67.0964 194.447L63.3864 206.347L59.4664 205.397L58.5664 208.187Z"
      fill="#FF8C00"
    />
<path
      opacity="0.5"
      d="M110.886 174.909L72.2227 194.338L73.426 196.733L112.089 177.304L110.886 174.909Z"
      fill="#FF8C00"
    />
<path
      opacity="0.5"
      d="M102.922 183.985L74.2578 198.389L75.4612 200.783L104.126 186.379L102.922 183.985Z"
      fill="#FF8C00"
    />
<path
      opacity="0.5"
      d="M92.8897 194.107L76.2969 202.445L77.5002 204.84L94.093 196.502L92.8897 194.107Z"
      fill="#FF8C00"
    />
    
<g clip-path="url(#clip1_13731_82401)">
<g style="mix-blend-mode:soft-light" opacity="0.5">
<path
          d="M62 34.2494L74.56 44.8094L101.84 19.2494L96.1 13.3594L74.69 35.5294L67.07 29.0694L62 34.2494Z"
          fill="black"
        />
</g>
<path
        d="M62 32.89L74.56 43.46L101.84 17.89L96.1 12L74.69 34.17L67.07 27.72L62 32.89Z"
        fill="white"
      />
</g>
</g>
<defs>
<linearGradient
      id="paint0_linear_13731_82401"
      x1="45.3111"
      y1="56.75"
      x2="125.301"
      y2="-2.8"
      gradientUnits="userSpaceOnUse"
    >
<stop stop-color="#FF8C00" />
<stop offset="1" stop-color="#FF8C00" />
</linearGradient>
<clipPath id="clip0_13731_82401">
<rect width="160.63" height="246.3" fill="white" />
</clipPath>
<clipPath id="clip1_13731_82401">
<rect width="39.84" height="32.81" fill="white" transform="translate(62 12)" />
</clipPath>
</defs>
</svg>
